<?xml version="1.0" encoding="UTF-8"?>
<svg width="113.5mm" height="106.53mm" version="1.1" viewBox="0 0 113.5 106.53" xmlns="http://www.w3.org/2000/svg">
 <defs>
  <clipPath id="i">
   <path transform="translate(-389.09 -363.26)" d="m0 0h1190.6v737.01h-1190.6z"/>
  </clipPath>
  <clipPath id="h">
   <path transform="translate(-192.97 -273.03)" d="m0 0h1190.6v737.01h-1190.6z"/>
  </clipPath>
  <clipPath id="g">
   <path transform="translate(-192.97 -326.37)" d="m0 0h1190.6v737.01h-1190.6z"/>
  </clipPath>
  <clipPath id="f">
   <path transform="translate(-193.65 -310.86)" d="m0 0h1190.6v737.01h-1190.6z"/>
  </clipPath>
  <clipPath id="e">
   <path transform="translate(-214.07 -386.26)" d="m0 0h1190.6v737.01h-1190.6z"/>
  </clipPath>
  <clipPath id="d">
   <path transform="translate(-181.11 -250.11)" d="m0 0h1190.6v737.01h-1190.6z"/>
  </clipPath>
  <clipPath id="c">
   <path transform="translate(-209.54 -424.52)" d="m0 0h1190.6v737.01h-1190.6z"/>
  </clipPath>
  <clipPath id="b">
   <path transform="translate(-192.97 -362.12)" d="m0 0h1190.6v737.01h-1190.6z"/>
  </clipPath>
  <clipPath id="a">
   <path transform="translate(-192.97 -229.09)" d="m0 0h1190.6v737.01h-1190.6z"/>
  </clipPath>
 </defs>
 <g>
  <path transform="matrix(.35278 0 0 -.35278 89.011 37.253)" d="m0 0-1e-3 4.943c-9e-3 55.593-45.08 100.66-100.67 100.66h-131.99c-10.851 0-19.649-8.798-19.649-19.649v-262.64c0-10.867 8.81-19.678 19.678-19.678h198.43c55.772 0 103.19 44.082 103.62 99.852 0.352 45.036-28.875 83.298-69.415 96.52" clip-path="url(#i)" fill="#e84424"/>
  <g fill="#fff">
   <path transform="matrix(.35278 0 0 -.35278 19.825 69.086)" d="m0 0c0-9.136 7.432-16.568 16.568-16.568s16.568 7.432 16.568 16.568c0 9.135-7.432 16.567-16.568 16.567s-16.568-7.432-16.568-16.567m16.568 8.111c4.472 0 8.111-3.639 8.111-8.111s-3.639-8.111-8.111-8.111-8.11 3.639-8.11 8.111 3.638 8.111 8.11 8.111" clip-path="url(#h)"/>
   <path transform="matrix(.35278 0 0 -.35278 19.825 50.268)" d="m0 0c0-9.135 7.432-16.567 16.568-16.567s16.568 7.432 16.568 16.567c0 9.136-7.432 16.568-16.568 16.568s-16.568-7.432-16.568-16.568m16.568 8.111c4.472 0 8.111-3.639 8.111-8.111s-3.639-8.111-8.111-8.111-8.11 3.639-8.11 8.111 3.638 8.111 8.11 8.111" clip-path="url(#g)"/>
   <path d="m31.271 75.677h-11.205v2.9834h11.205z"/>
   <path transform="matrix(.35278 0 0 -.35278 20.066 55.74)" d="m0 0v-8.327h-2.379c-1.023 0-1.789 0.245-2.276 0.731-0.488 0.488-0.734 1.254-0.734 2.279v5.317h-7.149v-7.125c0-3.219 0.766-5.67 2.276-7.284 1.504-1.607 3.701-2.421 6.528-2.421h3.734v-5.49h7.083v5.49h24.688v8.503h-24.688v8.327z" clip-path="url(#f)"/>
   <path transform="matrix(.35278 0 0 -.35278 27.269 29.138)" d="m0 0c2.24-1.515 3.577-4.028 3.577-6.727 0-4.473-3.639-8.11-8.111-8.11s-8.11 3.637-8.11 8.11c0 2.699 1.338 5.212 3.578 6.727l0.455 0.306-6.315 5.867-0.295-0.25c-3.737-3.162-5.881-7.773-5.881-12.65 0-9.135 7.433-16.567 16.568-16.567 9.136 0 16.568 7.432 16.568 16.567 0 4.877-2.143 9.488-5.881 12.65l-0.295 0.25-6.312-5.867z" clip-path="url(#e)"/>
   <path transform="matrix(.35278 0 0 -.35278 15.643 77.168)" d="m0 0c0-2.708 2.203-4.912 4.912-4.912s4.912 2.204 4.912 4.912c0 2.71-2.203 4.912-4.912 4.912s-4.912-2.202-4.912-4.912" clip-path="url(#d)"/>
   <path transform="matrix(.35278 0 0 -.35278 25.67 15.643)" d="m0 0c-9.136 0-16.568-7.432-16.568-16.568s7.432-16.568 16.568-16.568 16.568 7.432 16.568 16.568c0 5.209-2.416 9.865-6.187 12.904l-6.322-5.884c2.42-1.405 4.052-4.025 4.052-7.02 0-3.522-2.261-6.519-5.406-7.637v23.984c-0.88 0.145-1.784 0.221-2.705 0.221m-2.705-24.205c-3.144 1.118-5.406 4.115-5.406 7.637s2.262 6.52 5.406 7.637z" clip-path="url(#c)"/>
   <path transform="matrix(.35278 0 0 -.35278 19.825 37.654)" d="m0 0c0-2.394 0.421-4.342 1.252-5.788 0.616-1.074 1.465-2.021 2.515-2.838h-0.017l-3.066-0.765v-7.683h31.761v8.448h-15.97c-2.42 0-4.349 0.546-5.733 1.622-1.351 1.051-2.036 2.748-2.036 5.045v3.864h-8.706z" clip-path="url(#b)"/>
   <path transform="matrix(.35278 0 0 -.35278 19.825 84.586)" d="m0 0c0-3.551 1.425-6.807 3.795-9.345h-15.649v-8.513h44.308v7.486l-3.134 1.027h-0.018c2.381 2.54 3.834 5.786 3.834 9.345 0 8.103-7.417 14.672-16.568 14.672-9.15 0-16.568-6.569-16.568-14.672m25.404-1.519c0-4.323-3.956-7.826-8.836-7.826s-8.837 3.503-8.837 7.826c0 4.321 3.957 7.825 8.837 7.825s8.836-3.504 8.836-7.825" clip-path="url(#a)"/>
  </g>
 </g>
</svg>
